<svg width="35" height="36" viewBox="0 0 35 36" fill="none" xmlns="http://www.w3.org/2000/svg">
<path d="M17.4998 25.1983C20.3253 25.1983 22.6158 23.069 22.6158 20.4423C22.6158 17.8156 20.3253 15.6863 17.4998 15.6863C14.6743 15.6863 12.3837 17.8156 12.3837 20.4423C12.3837 23.069 14.6743 25.1983 17.4998 25.1983Z" stroke="#BDBDBD" stroke-width="3" stroke-miterlimit="1.5" stroke-linecap="round" stroke-linejoin="round"/>
<path d="M9.44214 32.808C9.44214 22.7106 25.5577 22.7106 25.5577 32.808" stroke="#BDBDBD" stroke-width="3" stroke-miterlimit="1.5"/>
<path d="M24.2131 28.383L30.5665 25.1982" stroke="#BDBDBD" stroke-width="3" stroke-miterlimit="1.5" stroke-linecap="round"/>
<path d="M10.7335 28.383L4.38005 25.1982" stroke="#BDBDBD" stroke-width="3" stroke-miterlimit="1.5" stroke-linecap="round"/>
<path d="M5.49214 16.7376C6.63236 16.7376 7.5567 15.821 7.5567 14.6904C7.5567 13.5597 6.63236 12.6432 5.49214 12.6432C4.35192 12.6432 3.42758 13.5597 3.42758 14.6904C3.42758 15.821 4.35192 16.7376 5.49214 16.7376Z" fill="#BDBDBD"/>
<path d="M31.3915 12.6434H27.0671V16.7378H31.3915V12.6434Z" fill="#BDBDBD"/>
<path fill-rule="evenodd" clip-rule="evenodd" d="M17.4999 2.96075L19.5644 7.05512H15.4353L17.4999 2.96075Z" fill="#BDBDBD"/>
</svg>
